<svg width="44" height="44" viewBox="0 0 44 44" fill="none" xmlns="http://www.w3.org/2000/svg">
<rect width="44" height="44" rx="22" fill="black"/>
<g clip-path="url(#clip0_1003_416)">
<path d="M17.024 12.3103C17.7753 12.5638 18.4898 12.9156 19.149 13.3563C20.0805 13.1179 21.0384 12.9983 22 13.0003C22.993 13.0003 23.951 13.1243 24.849 13.3553C25.5079 12.915 26.2221 12.5636 26.973 12.3103C27.67 12.0733 28.663 11.6893 29.253 12.3423C29.653 12.7863 29.753 13.5303 29.824 14.0983C29.904 14.7323 29.923 15.5583 29.713 16.3783C30.516 17.4153 31 18.6523 31 20.0003C31 22.0423 29.894 23.8153 28.257 25.0433C27.4688 25.6262 26.5951 26.0836 25.667 26.3993C25.881 26.8893 26 27.4313 26 28.0003V31.0003C26 31.2655 25.8946 31.5199 25.7071 31.7074C25.5196 31.8949 25.2652 32.0003 25 32.0003H19C18.7348 32.0003 18.4804 31.8949 18.2929 31.7074C18.1053 31.5199 18 31.2655 18 31.0003V30.0093C17.045 30.1263 16.244 30.0223 15.563 29.7333C14.851 29.4313 14.355 28.9633 13.982 28.5153C13.628 28.0913 13.242 27.1353 12.684 26.9493C12.5594 26.9078 12.4441 26.8422 12.3449 26.7561C12.2456 26.6701 12.1643 26.5654 12.1055 26.4479C11.9868 26.2107 11.9672 25.936 12.051 25.6843C12.1348 25.4326 12.3152 25.2245 12.5524 25.1058C12.7896 24.9871 13.0643 24.9675 13.316 25.0513C13.982 25.2733 14.416 25.7533 14.713 26.1393C15.193 26.7593 15.583 27.5693 16.343 27.8923C16.656 28.0253 17.115 28.1123 17.833 28.0143L18 27.9803C18.0023 27.4361 18.1156 26.8982 18.333 26.3993C17.4049 26.0836 16.5312 25.6262 15.743 25.0433C14.106 23.8153 13 22.0433 13 20.0003C13 18.6543 13.483 17.4183 14.284 16.3823C14.074 15.5623 14.092 14.7343 14.172 14.0993L14.177 14.0613C14.25 13.4793 14.335 12.7943 14.743 12.3423C15.333 11.6893 16.327 12.0743 17.023 12.3113L17.024 12.3103Z" fill="white"/>
</g>
<defs>
<clipPath id="clip0_1003_416">
<rect width="24" height="24" fill="white" transform="translate(10 10)"/>
</clipPath>
</defs>
</svg>
