<svg width="44" height="44" viewBox="0 0 44 44" fill="none" xmlns="http://www.w3.org/2000/svg">
<rect width="44" height="44" rx="22" fill="black"/>
<path d="M31.959 23.7189V31.0979H27.681V24.2129C27.681 22.4829 27.062 21.3029 25.514 21.3029C24.332 21.3029 23.628 22.0989 23.319 22.8679C23.206 23.1429 23.177 23.5259 23.177 23.9109V31.0979H18.897C18.897 31.0979 18.955 19.4379 18.897 18.2289H23.177V20.0529L23.149 20.0949H23.177V20.0529C23.745 19.1779 24.76 17.9269 27.033 17.9269C29.848 17.9269 31.959 19.7669 31.959 23.7189ZM14.421 12.0259C12.958 12.0259 12 12.9859 12 14.2489C12 15.4839 12.93 16.4729 14.365 16.4729H14.393C15.886 16.4729 16.813 15.4839 16.813 14.2489C16.787 12.9859 15.886 12.0259 14.421 12.0259ZM12.254 31.0979H16.532V18.2289H12.254V31.0979Z" fill="white"/>
</svg>
