<svg width="44" height="44" viewBox="0 0 44 44" fill="none" xmlns="http://www.w3.org/2000/svg">
<rect width="44" height="44" rx="22" fill="black"/>
<g clip-path="url(#clip0_767_415)">
<path d="M27.625 18.2499H22.75V25.0468C22.75 25.2457 22.671 25.4364 22.5303 25.5771C22.3897 25.7178 22.1989 25.7968 22 25.7968C21.8011 25.7968 21.6103 25.7178 21.4697 25.5771C21.329 25.4364 21.25 25.2457 21.25 25.0468V18.2499H16.375C15.679 18.2506 15.0118 18.5274 14.5197 19.0196C14.0275 19.5117 13.7507 20.1789 13.75 20.8749V29.8749C13.7507 30.5709 14.0275 31.2381 14.5197 31.7302C15.0118 32.2224 15.679 32.4992 16.375 32.4999H27.625C28.321 32.4992 28.9882 32.2224 29.4803 31.7302C29.9725 31.2381 30.2493 30.5709 30.25 29.8749V20.8749C30.2493 20.1789 29.9725 19.5117 29.4803 19.0196C28.9882 18.5274 28.321 18.2506 27.625 18.2499ZM22.75 14.0607L25.2198 16.5301C25.3616 16.6648 25.5505 16.7388 25.746 16.7363C25.9416 16.7338 26.1285 16.6549 26.2668 16.5166C26.4051 16.3783 26.4839 16.1915 26.4864 15.9959C26.4889 15.8003 26.4149 15.6115 26.2802 15.4697L22.5302 11.7197C22.3895 11.5792 22.1988 11.5002 22 11.5002C21.8012 11.5002 21.6105 11.5792 21.4698 11.7197L17.7198 15.4697C17.5851 15.6115 17.5111 15.8003 17.5136 15.9959C17.5161 16.1915 17.5949 16.3783 17.7332 16.5166C17.8715 16.6549 18.0584 16.7338 18.254 16.7363C18.4495 16.7388 18.6384 16.6648 18.7802 16.5301L21.25 14.0607V18.2499H22.75V14.0607Z" fill="white"/>
</g>
<defs>
<clipPath id="clip0_767_415">
<rect width="24" height="24" fill="white" transform="translate(10 10)"/>
</clipPath>
</defs>
</svg>
