<svg width="44" height="44" viewBox="0 0 44 44" fill="none" xmlns="http://www.w3.org/2000/svg">
<rect width="44" height="44" rx="22" fill="black"/>
<path d="M15 15H28C28.7956 15 29.5587 15.3161 30.1213 15.8787C30.6839 16.4413 31 17.2044 31 18V27C31 27.7956 30.6839 28.5587 30.1213 29.1213C29.5587 29.6839 28.7956 30 28 30H15C14.2044 30 13.4413 29.6839 12.8787 29.1213C12.3161 28.5587 12 27.7956 12 27V18C12 17.2044 12.3161 16.4413 12.8787 15.8787C13.4413 15.3161 14.2044 15 15 15ZM15 16C14.5 16 14.06 16.17 13.72 16.47L21.5 21.5L29.28 16.47C28.94 16.17 28.5 16 28 16H15ZM21.5 22.71L13.13 17.28C13.05 17.5 13 17.75 13 18V27C13 27.5304 13.2107 28.0391 13.5858 28.4142C13.9609 28.7893 14.4696 29 15 29H28C28.5304 29 29.0391 28.7893 29.4142 28.4142C29.7893 28.0391 30 27.5304 30 27V18C30 17.75 29.95 17.5 29.87 17.28L21.5 22.71Z" fill="white"/>
</svg>
