<svg width="44" height="44" viewBox="0 0 44 44" fill="none" xmlns="http://www.w3.org/2000/svg">
<rect width="44" height="44" rx="22" fill="black"/>
<path d="M14.2851 17.269C14.2967 17.1542 14.2809 17.0384 14.2392 16.9308C14.1975 16.8232 14.131 16.727 14.0451 16.65L12.2751 14.517V14.197H17.7731L22.0231 23.517L25.7591 14.197H31.0001V14.516L29.4851 15.967C29.4217 16.0164 29.3727 16.0819 29.3432 16.1566C29.3136 16.2313 29.3046 16.3126 29.3171 16.392V27.058C29.3044 27.1374 29.3133 27.2188 29.3429 27.2936C29.3724 27.3683 29.4216 27.4338 29.4851 27.483L30.9641 28.934V29.253H23.5281V28.934L25.0571 27.447C25.2091 27.297 25.2091 27.252 25.2091 27.023V18.401L20.9501 29.218H20.3751L15.4171 18.401V25.65C15.3761 25.955 15.4771 26.262 15.6921 26.483L17.6841 28.9V29.219H12.0361V28.9L14.0281 26.483C14.1329 26.3738 14.2107 26.2416 14.2554 26.097C14.3 25.9524 14.3102 25.7993 14.2851 25.65V17.269Z" fill="white"/>
</svg>
