<svg width="44" height="44" viewBox="0 0 44 44" fill="none" xmlns="http://www.w3.org/2000/svg">
<rect width="44" height="44" rx="22" fill="black"/>
<path d="M17.0001 17.846V14.616H27.0001V17.846H17.0001ZM27.6161 22.116C27.8995 22.116 28.1368 22.02 28.3281 21.828C28.5195 21.636 28.6155 21.3986 28.6161 21.116C28.6168 20.8333 28.5208 20.5956 28.3281 20.403C28.1355 20.2103 27.8981 20.1143 27.6161 20.115C27.3341 20.1156 27.0965 20.2116 26.9031 20.403C26.7098 20.5943 26.6141 20.832 26.6161 21.116C26.6181 21.4 26.7138 21.6373 26.9031 21.828C27.0925 22.0186 27.3301 22.1146 27.6161 22.116ZM18.0001 29H26.0001V24.462H18.0001V29ZM17.0001 30V26H13.5771V18.616H30.4231V26H27.0001V30H17.0001Z" fill="white"/>
</svg>
