<svg width="44" height="44" viewBox="0 0 44 44" fill="none" xmlns="http://www.w3.org/2000/svg">
<rect width="44" height="44" rx="22" fill="black"/>
<path d="M30.71 13.6545C30.71 13.6545 32.6525 12.897 32.49 14.7365C32.4365 15.494 31.951 18.1455 31.573 21.013L30.278 29.508C30.278 29.508 30.17 30.7525 29.1985 30.969C28.2275 31.185 26.7705 30.2115 26.5005 29.995C26.2845 29.8325 22.4535 27.3975 21.1045 26.2075C20.7265 25.8825 20.2945 25.2335 21.1585 24.476L26.8245 19.065C27.472 18.415 28.1195 16.9 25.4215 18.74L17.8665 23.88C17.8665 23.88 17.003 24.4215 15.3845 23.9345L11.8765 22.852C11.8765 22.852 10.5815 22.0405 12.794 21.229C18.1905 18.686 24.828 16.089 30.7095 13.654" fill="white"/>
</svg>
